<svg width="268" height="203" viewBox="0 0 268 203" fill="none" xmlns="http://www.w3.org/2000/svg">
<path d="M198.24 74.71H167.69C159.29 74.71 154.37 68.64 154.37 61.68C154.37 51.21 163.25 48.94 167.69 48.94H221.16C240.62 48.94 256.4 33.16 256.4 13.7C256.4 13.7 256.29 0.0100021 242.71 0.0100021H156.86C141.21 0.0100021 94.44 10.8 94.44 63.12C94.44 88.89 107.37 107.51 128.02 117.26C138.25 122.09 149.63 124.5 162.18 124.5H191.88C201.92 124.5 207.22 131.57 207.22 139.26C207.22 146.95 195.43 153.74 191.88 153.74H76.15C66.86 153.74 62.54 145.43 62.54 139.84V35.24C62.54 15.78 46.76 0 27.3 0H13.69C6.13 0 0 6.12999 0 13.69V139.26C0 194.57 53.36 202.66 68.04 202.66H201.12C255.01 202.66 267.13 157.47 267.13 135.78C267.13 81.65 215.85 74.69 198.23 74.69L198.24 74.71Z" fill="url(#paint0_linear_13113_8652)"/>
<defs>
<linearGradient id="paint0_linear_13113_8652" x1="3.76726" y1="97.3885" x2="269.994" y2="97.3885" gradientUnits="userSpaceOnUse">
<stop stop-color="#008392"/>
<stop offset="1" stop-color="#00BC86"/>
</linearGradient>
</defs>
</svg>
