<svg width="114" height="32" viewBox="0 0 114 32" fill="none" xmlns="http://www.w3.org/2000/svg">
<path d="M30.844 12.0379H26.0907C24.7838 12.0379 24.0183 11.0935 24.0183 10.0106C24.0183 8.38161 25.3999 8.02841 26.0907 8.02841H34.4101C37.4379 8.02841 39.8931 5.57321 39.8931 2.54545C39.8931 2.54545 39.8759 0.415436 37.763 0.415436H24.4057C21.9707 0.415436 14.6938 2.09424 14.6938 10.2347C14.6938 14.2442 16.7056 17.1413 19.9185 18.6583C21.5102 19.4097 23.2808 19.7847 25.2335 19.7847H29.8544C31.4165 19.7847 32.2411 20.8847 32.2411 22.0812C32.2411 23.6464 30.4068 24.3341 29.8544 24.3341H11.8481C10.4027 24.3341 9.73053 23.0412 9.73053 22.1715V5.89684C9.73053 2.86907 7.27533 0.413879 4.24758 0.413879H2.13001C0.95376 0.413879 0 1.36764 0 2.54389V22.0812C0 30.6868 8.3022 31.9455 10.5863 31.9455H31.2921C39.6768 31.9455 41.5625 24.9145 41.5625 21.5397C41.5625 13.1177 33.5839 12.0348 30.8424 12.0348L30.844 12.0379Z" fill="#018762"/>
<path d="M88.2626 21.5164C86.626 21.5164 85.8087 22.9104 85.8087 23.8549V26.9216C85.8087 27.7135 85.63 28.3296 85.2767 28.7544C84.5207 29.663 83.1953 29.4483 82.6813 28.9333C82.2133 28.465 82.2553 27.561 82.2553 26.8873V22.2586C82.2553 21.588 81.5193 21.5148 81.5113 21.5148C79.8747 21.5148 79.058 22.9089 79.058 23.8533V27.6932C79.058 28.6922 79.526 32 83.078 32C85.2113 32 85.6753 30.9684 85.818 30.7335V31.0198C85.818 31.4305 86.1513 31.7635 86.5607 31.7635H87.128C88.1627 31.7635 89.0047 30.9218 89.0047 29.8871V22.257C89.0047 21.5864 88.2687 21.5132 88.2613 21.5132L88.2626 21.5164Z" fill="#018762"/>
<path d="M85.9193 17.5193C85.5273 17.5193 85.1573 17.6967 84.9233 17.997L83.6107 20.2873C83.4567 20.4849 83.402 20.7213 83.4593 20.9376C83.5527 21.2846 83.884 21.5273 84.2673 21.5273C85.5227 21.5273 86.652 20.5704 87.2153 19.5357L87.69 18.6629C87.81 18.4435 87.824 18.1993 87.7287 17.9939C87.598 17.7061 87.2967 17.5209 86.9633 17.5209H85.9193V17.5193Z" fill="#018762"/>
<path d="M60.4526 23.5033H58.3475C58.0472 23.5033 57.2848 23.3119 57.2848 22.4219C57.2848 22.2072 57.4264 21.3219 58.3475 21.3219H61.8949C63.958 21.3219 63.8802 19.1763 63.8802 19.1763C63.8802 18.7796 63.5566 18.456 63.1598 18.456H57.9943C54.6258 18.456 53.9536 21.3826 53.9536 22.5153C53.9536 24.1505 54.7673 25.403 56.0572 26.0223C56.692 26.3272 57.4077 26.4828 58.181 26.4828H60.1927C60.4495 26.4828 61.3861 26.6695 61.3861 27.6949C61.3861 27.9158 61.2056 28.8882 60.1927 28.8882H56.4773C54.4141 28.8882 54.4936 31.0338 54.4936 31.0338C54.4936 31.4305 54.8171 31.7542 55.2139 31.7542H60.6393C64.0623 31.7542 64.6986 28.7186 64.6986 27.4148C64.6986 23.9451 61.5199 23.5049 60.4526 23.5049V23.5033Z" fill="#018762"/>
<path d="M77.0307 22.2461C77.0307 21.8369 76.6973 21.532 76.2887 21.532C76.2887 21.532 74.628 21.5086 74.2113 23.0801C73.7193 22.2321 72.9073 21.2939 70.9347 21.3064C68.7813 21.3204 67.624 22.3488 66.9113 23.662C66.2405 24.8973 66.2716 26.6399 66.2716 26.6399C66.2716 30.1423 68.4547 31.9985 70.936 31.9985C73.0273 31.9985 73.8767 30.9451 74.118 30.6168C74.118 30.6168 73.93 31.7619 74.8293 31.7619H75.3253C76.282 31.7619 77.032 31.012 77.032 30.0583V22.2461H77.0307ZM71.6707 29.3845C69.144 29.3845 69.374 26.5855 69.374 26.5855C69.374 24.6313 70.6466 24.0759 71.6707 24.0759C72.9387 24.0759 73.9673 24.8305 73.9673 26.5855C73.9673 26.5855 74.202 29.3845 71.6707 29.3845Z" fill="#018762"/>
<path d="M110.448 21.9801C109.123 21.1819 106.919 20.9999 105.124 22.0096C103.749 22.7829 102.709 24.2875 102.709 26.6213C102.709 26.6213 102.497 29.9136 105.153 31.3932C106.805 32.3143 109.222 32.0093 110.177 31.5426C111.85 30.7242 112.029 29.9011 112.009 29.5293C111.957 28.6222 110.773 28.2317 110.773 28.2317C109.795 27.7182 109.861 29.3675 107.974 29.3675C106.261 29.3675 105.811 28.2223 105.717 27.5704H111.739C112.349 27.5704 112.779 27.0663 112.779 26.5248C112.779 24.7775 112.139 22.9976 110.448 21.9785V21.9801ZM105.807 25.3346C105.807 24.9923 106.463 24.0743 107.834 24.0743C109.107 24.0743 109.802 24.7044 109.802 25.3346H105.807Z" fill="#018762"/>
<path d="M100.499 17.6889H100.485C99.8573 17.6889 99.238 17.9456 98.7853 18.3952C98.34 18.8387 98.094 19.4175 98.094 20.029V22.3877C97.0907 21.2394 95.8753 21.2721 95.1553 21.2721C90.452 21.2721 90.5433 26.6368 90.5433 26.6368C90.5433 31.4881 94.186 31.986 95.1553 31.986C97.3367 31.986 97.92 30.9606 98.1333 30.6915V31.0058C98.1333 31.4165 98.4673 31.7495 98.8767 31.7495H99.4447C100.429 31.7495 101.229 30.9482 101.229 29.9648V18.4326C101.229 18.025 100.903 17.6904 100.499 17.6889ZM95.91 29.3658C93.4233 29.3658 93.6567 26.643 93.6567 26.643C93.6567 24.6515 94.8953 24.0556 95.91 24.0556C97.0127 24.0556 98.1627 24.7448 98.1627 26.5528C98.1627 26.643 98.4567 29.3658 95.91 29.3658Z" fill="#018762"/>
<path d="M82.8793 13.9672C86.3987 13.9672 87.4287 11.4934 87.5687 11.1776C88.3107 9.51582 85.9287 9.27622 85.9287 9.27622C85.4607 9.17668 84.9967 9.44268 84.8507 9.89395C84.6373 10.5552 84.1273 11.1853 82.9367 11.1853C80.9233 11.1853 80.6667 9.49248 80.6667 8.59322C80.6667 8.59322 80.5873 6.02909 82.9367 6.02909C84.4567 6.02909 84.8007 7.16642 84.8507 7.32048C84.9967 7.77322 85.4607 8.03775 85.9287 7.93815C85.932 7.93815 88.3153 7.70635 87.5687 6.03687C86.8127 4.34251 85.2193 3.24872 82.8793 3.24872C77.326 3.24872 77.614 8.59322 77.614 8.59322C77.614 12.472 80.3247 13.9672 82.8793 13.9672Z" fill="#018762"/>
<path d="M110.663 3.50696H110.103C109.107 3.50696 108.296 4.31758 108.296 5.31335V12.9793C108.296 13.3947 108.635 13.7339 109.051 13.7339H109.619C110.627 13.7339 111.417 12.9092 111.417 11.8575V4.26157C111.417 3.84614 111.078 3.50696 110.663 3.50696Z" fill="#018762"/>
<path d="M110.013 0H109.636C108.809 0 108.137 0.67082 108.137 1.49833V1.49988C108.137 2.32738 108.809 2.9982 109.636 2.9982H110.013C110.84 2.9982 111.511 2.32738 111.511 1.49988V1.49833C111.511 0.67082 110.84 0 110.013 0Z" fill="#018762"/>
<path d="M92.37 11.8357V7.86501C92.4293 7.01241 93.0127 6.58921 94.612 6.58921C94.612 6.58921 96.482 6.74788 96.482 5.27448C96.4747 4.36895 96.6147 3.50543 95.714 3.50543H95.4007C94.424 3.50543 93.4793 3.87885 92.7853 4.56655C92.6487 4.70191 92.51 4.85439 92.3733 5.02554C92.3733 4.95086 92.3813 4.27093 92.3793 4.11379C92.376 3.85707 92.14 3.52877 91.656 3.52877C91.642 3.52877 91.4273 3.53655 91.3573 3.53655C90.702 3.53655 89.174 4.05622 89.174 5.85483V12.9606C89.174 13.3775 89.512 13.7152 89.9287 13.7152H90.4967C91.5333 13.7152 92.3733 12.875 92.3733 11.8388L92.37 11.8357Z" fill="#018762"/>
<path d="M75.9947 4.21338C75.9947 3.80418 75.6613 3.49922 75.252 3.49922C75.252 3.49922 73.592 3.47589 73.1753 5.04733C72.6833 4.19937 71.8713 3.26117 69.8987 3.27362C67.7453 3.28762 66.5875 4.31607 65.8749 5.62924C65.2043 6.86463 65.2354 8.60723 65.2354 8.60723C65.2354 12.1095 67.418 13.9657 69.9 13.9657C71.9913 13.9657 72.8407 12.9124 73.082 12.5841C73.082 12.5841 72.8933 13.7292 73.7927 13.7292H74.2893C75.246 13.7292 75.996 12.9793 75.996 12.0255V4.21338H75.9947ZM70.634 11.3518C68.1073 11.3518 68.338 8.55276 68.338 8.55276C68.338 6.59856 69.6107 6.04311 70.634 6.04311C71.9027 6.04311 72.9307 6.79769 72.9307 8.55276C72.9307 8.55276 73.166 11.3518 70.634 11.3518Z" fill="#018762"/>
<path d="M104.563 3.95505C103.238 3.15688 101.035 2.97484 99.2393 3.98461C97.864 4.75789 96.8247 6.26244 96.8247 8.59624C96.8247 8.59624 96.6133 11.8885 99.2687 13.3682C100.921 14.2892 103.337 13.9843 104.293 13.5176C105.965 12.6992 106.145 11.8761 106.124 11.5042C106.073 10.5972 104.889 10.2066 104.889 10.2066C103.91 9.69318 103.977 11.3424 102.09 11.3424C100.377 11.3424 99.9273 10.1973 99.832 9.54538H105.855C106.465 9.54538 106.895 9.04124 106.895 8.49978C106.895 6.75251 106.255 4.9726 104.563 3.9535V3.95505ZM99.9227 7.30958C99.9227 6.96724 100.579 6.04928 101.95 6.04928C103.223 6.04928 103.918 6.67944 103.918 7.30958H99.9227Z" fill="#018762"/>
<path d="M56.3995 13.6358H61.7315C61.9898 13.6358 62.4519 13.5876 62.6433 13.4958C64.0623 12.8143 64.3797 10.6672 63.1661 10.6672H58.3319C57.9958 10.6672 57.722 10.3933 57.722 10.0573L57.7578 2.23583C57.7578 1.18405 56.9021 0.328308 55.8503 0.328308H55.3243C54.9027 0.328308 54.5169 0.670601 54.5169 1.09225L54.5246 11.7594C54.5246 12.7941 55.3664 13.6358 56.4011 13.6358H56.3995Z" fill="#018762"/>
</svg>
